<svg width="12" height="20" viewBox="0 0 12 20" fill="none" xmlns="http://www.w3.org/2000/svg">
<path d="M11.286 9.99999C11.2862 9.82728 11.2515 9.6563 11.184 9.49734C11.1165 9.33838 11.0175 9.19472 10.893 9.07499L3.17901 1.36099C3.05584 1.2389 2.90923 1.14299 2.74801 1.07907C2.58679 1.01514 2.4143 0.98451 2.24093 0.989021C2.06756 0.993533 1.89689 1.03309 1.73922 1.10532C1.58154 1.17754 1.44012 1.28094 1.32347 1.40928C1.20681 1.53761 1.11735 1.68824 1.06046 1.85207C1.00357 2.01591 0.980431 2.18956 0.992441 2.36258C1.00445 2.53559 1.05136 2.70438 1.13034 2.85878C1.20932 3.01319 1.31874 3.15 1.45201 3.26099L8.18501 9.99999L1.36001 16.822C1.24064 16.9414 1.14595 17.0831 1.08134 17.239C1.01674 17.395 0.98349 17.5622 0.98349 17.731C0.98349 17.8998 1.01674 18.067 1.08134 18.2229C1.14595 18.3789 1.24064 18.5206 1.36001 18.64C1.47938 18.7594 1.62109 18.8541 1.77706 18.9187C1.93303 18.9833 2.10019 19.0165 2.26901 19.0165C2.43783 19.0165 2.60499 18.9833 2.76096 18.9187C2.91692 18.8541 3.05864 18.7594 3.17801 18.64L10.892 10.926C11.0168 10.8062 11.116 10.6624 11.1837 10.5033C11.2515 10.3442 11.2862 10.1729 11.286 9.99999Z" fill="#F9C705"/>
</svg>
