<svg width="38" height="39" viewBox="0 0 38 39" fill="none" xmlns="http://www.w3.org/2000/svg">
<path d="M24.041 38.5C24.1702 38.1475 24.2378 37.7754 24.241 37.4C24.2395 36.5855 23.9338 35.8009 23.384 35.2C23.9337 34.599 24.2393 33.8145 24.241 33C24.2395 32.1855 23.9338 31.4009 23.384 30.8C23.9337 30.199 24.2393 29.4145 24.241 28.6C24.241 28.1666 24.1556 27.7375 23.9898 27.3371C23.824 26.9368 23.5809 26.573 23.2745 26.2665C22.968 25.9601 22.6042 25.717 22.2039 25.5512C21.8035 25.3854 21.3744 25.3 20.941 25.3H8.863V20.832H5.563C5.27126 20.832 4.99147 20.7161 4.78518 20.5098C4.57889 20.3035 4.463 20.0237 4.463 19.732V10.87C4.463 10.5783 4.57889 10.2985 4.78518 10.0922C4.99147 9.88589 5.27126 9.77 5.563 9.77H16.29L19.846 7.992V6.47501C19.846 6.18327 19.9619 5.90348 20.1682 5.69719C20.3745 5.4909 20.6543 5.375 20.946 5.375C21.2377 5.375 21.5175 5.2591 21.7238 5.05281C21.9301 4.84652 22.046 4.56673 22.046 4.27499C22.046 3.98326 21.9301 3.70347 21.7238 3.49718C21.5175 3.29089 21.2377 3.175 20.946 3.175C20.6543 3.175 20.3745 3.29089 20.1682 3.49718C19.9619 3.70347 19.846 3.98326 19.846 4.27499C19.846 4.56673 19.7301 4.84652 19.5238 5.05281C19.3175 5.2591 19.0377 5.375 18.746 5.375C18.4543 5.375 18.1745 5.2591 17.9682 5.05281C17.7619 4.84652 17.646 4.56673 17.646 4.27499C17.646 3.84163 17.7314 3.41252 17.8972 3.01215C18.063 2.61177 18.3061 2.24798 18.6125 1.94154C18.919 1.63511 19.2828 1.39204 19.6831 1.2262C20.0835 1.06036 20.5126 0.975006 20.946 0.975006C21.3794 0.975006 21.8085 1.06036 22.2089 1.2262C22.6092 1.39204 22.973 1.63511 23.2795 1.94154C23.5859 2.24798 23.829 2.61177 23.9948 3.01215C24.1606 3.41252 24.246 3.84163 24.246 4.27499C24.2455 4.95703 24.0337 5.62217 23.6398 6.17891C23.2458 6.73565 22.689 7.15666 22.046 7.384V7.991L25.602 9.769H36.4C36.6917 9.769 36.9715 9.8849 37.1778 10.0912C37.3841 10.2975 37.5 10.5773 37.5 10.869V19.731C37.5 20.0227 37.3841 20.3025 37.1778 20.5088C36.9715 20.7151 36.6917 20.831 36.4 20.831H33.1V37.4C33.1 37.6917 32.9841 37.9715 32.7778 38.1778C32.5715 38.3841 32.2917 38.5 32 38.5H24.041ZM17.717 11.534C17.867 12.2805 18.2705 12.9523 18.8592 13.4352C19.4479 13.9182 20.1855 14.1828 20.947 14.184C21.7086 14.183 22.4465 13.9186 23.0354 13.4356C23.6243 12.9526 24.028 12.2807 24.178 11.534L20.947 9.91901L17.717 11.534ZM1.1 38.5C0.80826 38.5 0.528472 38.3841 0.322182 38.1778C0.115892 37.9715 0 37.6917 0 37.4C0 37.1083 0.115892 36.8285 0.322182 36.6222C0.528472 36.4159 0.80826 36.3 1.1 36.3H20.949C21.2407 36.3 21.5205 36.4159 21.7268 36.6222C21.9331 36.8285 22.049 37.1083 22.049 37.4C22.049 37.6917 21.9331 37.9715 21.7268 38.1778C21.5205 38.3841 21.2407 38.5 20.949 38.5H1.1ZM1.1 34.105C0.80826 34.105 0.528472 33.9891 0.322182 33.7828C0.115892 33.5765 0 33.2967 0 33.005C0 32.7133 0.115892 32.4335 0.322182 32.2272C0.528472 32.0209 0.80826 31.905 1.1 31.905H20.949C21.2407 31.905 21.5205 32.0209 21.7268 32.2272C21.9331 32.4335 22.049 32.7133 22.049 33.005C22.049 33.2967 21.9331 33.5765 21.7268 33.7828C21.5205 33.9891 21.2407 34.105 20.949 34.105H1.1ZM1.1 29.71C0.80826 29.71 0.528472 29.5941 0.322182 29.3878C0.115892 29.1815 0 28.9017 0 28.61C0 28.3183 0.115892 28.0385 0.322182 27.8322C0.528472 27.6259 0.80826 27.51 1.1 27.51H20.949C21.2407 27.51 21.5205 27.6259 21.7268 27.8322C21.9331 28.0385 22.049 28.3183 22.049 28.61C22.049 28.9017 21.9331 29.1815 21.7268 29.3878C21.5205 29.5941 21.2407 29.71 20.949 29.71H1.1Z" fill="url(#paint0_linear_2_25)"/>
<defs>
<linearGradient id="paint0_linear_2_25" x1="14.475" y1="41.502" x2="14.475" y2="-1.38907" gradientUnits="userSpaceOnUse">
<stop stop-color="white" stop-opacity="0.502"/>
<stop offset="1" stop-color="white"/>
</linearGradient>
</defs>
</svg>
