<svg width="31" height="38" viewBox="0 0 31 38" fill="none" xmlns="http://www.w3.org/2000/svg">
<path d="M19.211 37.09C18.7601 37.09 18.3277 36.9109 18.0089 36.5921C17.6901 36.2733 17.511 35.8409 17.511 35.39V16.978C17.5326 15.2072 18.2512 13.5162 19.5111 12.2716C20.7709 11.027 22.4705 10.329 24.2415 10.329C26.0125 10.329 27.7121 11.027 28.9719 12.2716C30.2318 13.5162 30.9504 15.2072 30.972 16.978V35.39C30.972 35.8409 30.7929 36.2733 30.4741 36.5921C30.1553 36.9109 29.7229 37.09 29.272 37.09H19.211ZM1.7 37.09C1.24913 37.09 0.81673 36.9109 0.497918 36.5921C0.179107 36.2733 0 35.8409 0 35.39L0 26.9C0.000829899 26.5432 0.113884 26.1958 0.32315 25.9068C0.532416 25.6179 0.827287 25.4021 1.166 25.29L1.558 14.413C1.58322 13.8534 1.78661 13.3165 2.13848 12.8806C2.49035 12.4447 2.97229 12.1327 3.514 11.99L3.5 1.41199C3.4896 1.14598 3.55927 0.882973 3.7 0.656994C3.77416 0.544131 3.87523 0.451492 3.99412 0.387425C4.113 0.323358 4.24595 0.289875 4.381 0.289994C4.67928 0.30438 4.96277 0.424155 5.181 0.627994L9.795 4.47999C10.4755 5.10694 10.8815 5.97677 10.925 6.90099L10.919 11.99C11.4598 12.1332 11.9407 12.4454 12.2916 12.8811C12.6426 13.3168 12.8452 13.8531 12.87 14.412L13.263 25.29C13.6019 25.4019 13.897 25.6176 14.1064 25.9066C14.3159 26.1955 14.4291 26.5431 14.43 26.9V35.39C14.43 35.8409 14.2509 36.2733 13.9321 36.5921C13.6133 36.9109 13.1809 37.09 12.73 37.09H1.7ZM3.573 15.723L3.23 25.198H11.2L10.857 15.723C10.844 15.4392 10.7227 15.1711 10.5181 14.9739C10.3135 14.7768 10.0411 14.6655 9.757 14.663H4.672C4.38805 14.6658 4.11594 14.7772 3.91155 14.9743C3.70717 15.1714 3.58602 15.4393 3.573 15.723Z" fill="url(#paint0_linear_2_20)"/>
<defs>
<linearGradient id="paint0_linear_2_20" x1="15.486" y1="0.289993" x2="15.486" y2="37.09" gradientUnits="userSpaceOnUse">
<stop stop-color="white"/>
<stop offset="1" stop-color="white" stop-opacity="0.518"/>
</linearGradient>
</defs>
</svg>
