<svg width="41" height="32" viewBox="0 0 41 32" fill="none" xmlns="http://www.w3.org/2000/svg">
<path d="M13.3324 30.0759C13.5565 30.0756 13.7784 30.0302 13.9845 29.9422C14.1907 29.8542 14.3771 29.7256 14.5324 29.5639L38.5484 4.81492C38.7 4.65305 38.8179 4.46263 38.8952 4.25476C38.9725 4.04689 39.0076 3.82572 38.9986 3.60413C38.9896 3.38253 38.9366 3.16494 38.8427 2.96403C38.7488 2.76311 38.6159 2.58289 38.4516 2.43385C38.2874 2.28481 38.0952 2.16993 37.8861 2.0959C37.6771 2.02187 37.4554 1.99017 37.2339 2.00265C37.0125 2.01513 36.7958 2.07153 36.5964 2.16858C36.3969 2.26562 36.2188 2.40137 36.0724 2.56792L13.3384 26.0479L4.45837 17.1679C4.14179 16.869 3.72117 16.7054 3.28584 16.7116C2.85051 16.7179 2.43477 16.8936 2.12692 17.2015C1.81907 17.5093 1.64334 17.9251 1.63708 18.3604C1.63082 18.7957 1.79451 19.2163 2.09338 19.5329L12.1244 29.5649C12.2797 29.7266 12.466 29.8552 12.6722 29.9432C12.8784 30.0312 13.1002 30.0766 13.3244 30.0769L13.3324 30.0759Z" fill="#F9C705" stroke="#F9C705" stroke-width="3" stroke-linecap="round" stroke-linejoin="round"/>
</svg>
