<svg width="19" height="19" viewBox="0 0 19 19" fill="none" xmlns="http://www.w3.org/2000/svg">
<path d="M18.7425 7.90723L9.90449 0.16124C9.78593 0.0573046 9.63365 0 9.47599 0C9.31833 0 9.16604 0.0573046 9.04748 0.16124L0.209487 7.90723C0.08476 8.02219 0.00990761 8.18135 0.00091492 8.35074C-0.00807777 8.52012 0.0494992 8.68631 0.161353 8.81383C0.273208 8.94134 0.430482 9.02009 0.599594 9.03324C0.768705 9.0464 0.936261 8.99292 1.06649 8.88424L1.75049 8.28423V17.9492C1.75049 18.1216 1.81897 18.287 1.94086 18.4089C2.06276 18.5308 2.2281 18.5992 2.40049 18.5992H16.5525C16.7249 18.5992 16.8902 18.5308 17.0121 18.4089C17.134 18.287 17.2025 18.1216 17.2025 17.9492V8.28924L17.8865 8.88924C18.0167 8.99792 18.1843 9.05139 18.3534 9.03824C18.5225 9.02508 18.6798 8.94634 18.7916 8.81882C18.9035 8.69131 18.9611 8.52512 18.9521 8.35574C18.9431 8.18635 18.8682 8.02719 18.7435 7.91224L18.7425 7.90723ZM7.97649 17.3002V11.9462H10.9765V17.2992H7.97649V17.3002ZM15.9025 7.15124V17.3002H12.2775V11.3002C12.2775 11.1278 12.209 10.9625 12.0871 10.8406C11.9652 10.7187 11.7999 10.6502 11.6275 10.6502H7.32748C7.15509 10.6502 6.98976 10.7187 6.86787 10.8406C6.74597 10.9625 6.67749 11.1278 6.67749 11.3002V17.3002H3.05148V7.15024L9.47748 1.51823L15.9035 7.15024C15.9035 7.15024 15.9025 7.14824 15.9025 7.15024V7.15124Z" fill="#FFC600"/>
</svg>
