<svg width="18" height="18" viewBox="0 0 18 18" fill="none" xmlns="http://www.w3.org/2000/svg">
<path d="M16.7621 15.6021L13.1191 11.9621C14.2941 10.4914 14.8613 8.6267 14.7044 6.75086C14.5474 4.87502 13.6781 3.13048 12.2751 1.87553C10.872 0.620576 9.04174 -0.0495222 7.16008 0.00285442C5.27841 0.0552311 3.48822 0.826107 2.15716 2.15716C0.826107 3.48822 0.0552311 5.27841 0.00285442 7.16008C-0.0495222 9.04174 0.620576 10.872 1.87553 12.2751C3.13048 13.6781 4.87502 14.5474 6.75086 14.7044C8.6267 14.8613 10.4914 14.2941 11.9621 13.1191L15.6021 16.7621C15.7559 16.9159 15.9646 17.0024 16.1821 17.0024C16.3997 17.0024 16.6083 16.9159 16.7621 16.7621C16.9159 16.6083 17.0024 16.3997 17.0024 16.1821C17.0024 15.9646 16.9159 15.7559 16.7621 15.6021ZM7.36211 13.0901C6.22942 13.0901 5.12216 12.7542 4.18036 12.1249C3.23856 11.4956 2.50452 10.6012 2.07106 9.55474C1.63759 8.50827 1.52418 7.35676 1.74516 6.24583C1.96613 5.1349 2.51158 4.11445 3.31251 3.31351C4.11345 2.51258 5.1339 1.96713 6.24483 1.74616C7.35576 1.52518 8.50727 1.63859 9.55374 2.07206C10.6002 2.50552 11.4946 3.23956 12.1239 4.18136C12.7532 5.12316 13.0891 6.23042 13.0891 7.36311C13.0899 8.88184 12.4874 10.3387 11.4142 11.4132C10.3409 12.4878 8.88484 13.0921 7.36611 13.0931L7.36211 13.0901Z" fill="white"/>
</svg>
