<svg width="37" height="29" viewBox="0 0 37 29" fill="none" xmlns="http://www.w3.org/2000/svg">
<path d="M16 28.18C15.1362 28.173 14.2939 27.9096 13.58 27.4232C12.866 26.9368 12.3127 26.2493 11.99 25.448L6.547 13.072L5.485 27.183C5.4666 27.4567 5.34394 27.713 5.14229 27.899C4.94063 28.0851 4.67533 28.1867 4.401 28.183H3.273C3.12857 28.181 2.98601 28.15 2.85379 28.0918C2.72157 28.0337 2.60239 27.9495 2.50333 27.8444C2.40427 27.7393 2.32734 27.6153 2.27713 27.4799C2.22691 27.3444 2.20442 27.2003 2.211 27.056C2.33204 20.5205 1.68459 13.9934 0.282 7.609C0.149554 7.1109 0.0552804 6.60343 0 6.091C0.0545594 4.1475 0.590948 2.24798 1.561 0.563C1.63327 0.433055 1.73137 0.319272 1.84925 0.228649C1.96713 0.138026 2.10231 0.0724798 2.24647 0.0360425C2.39062 -0.000394754 2.54071 -0.00695259 2.6875 0.0167724C2.83428 0.0404975 2.97466 0.0940037 3.1 0.174C8.349 3.674 10.792 8.493 13.165 13.852C17.523 23.606 23.202 22.392 23.549 22.566C26.193 22.566 29.749 21.395 27.649 19.445C30.4628 20.3415 33.1739 21.5331 35.737 23C36.2475 23.3401 36.6336 23.8369 36.837 24.4155C37.0405 24.9942 37.0503 25.6233 36.865 26.208C36.6955 26.7862 36.3405 27.2926 35.8547 27.6492C35.369 28.0057 34.7794 28.1926 34.177 28.181L16 28.18ZM23.529 20.88C21.9672 20.8029 20.4636 20.2627 19.21 19.328C16.9657 17.4585 15.2326 15.05 14.173 12.328C14.027 12.001 13.873 11.678 13.728 11.352C16.478 14.406 20.621 17.952 23.928 18.762C25.033 19.028 26.028 19.316 26.976 19.621C26.5572 20.0387 26.057 20.3659 25.5066 20.5825C24.9562 20.799 24.3671 20.9003 23.776 20.88H23.529Z" fill="url(#paint0_linear_2_15)"/>
<defs>
<linearGradient id="paint0_linear_2_15" x1="18.4986" y1="0.00280762" x2="18.4986" y2="28.1831" gradientUnits="userSpaceOnUse">
<stop stop-color="white"/>
<stop offset="1" stop-color="white" stop-opacity="0.525"/>
</linearGradient>
</defs>
</svg>
